<?xml version="1.0" encoding="UTF-8" standalone="no"?>
<!-- Created with Inkscape (http://www.inkscape.org/) -->
<svg xmlns:dc="http://purl.org/dc/elements/1.1/" xmlns:cc="http://creativecommons.org/ns#" xmlns:rdf="http://www.w3.org/1999/02/22-rdf-syntax-ns#" xmlns:svg="http://www.w3.org/2000/svg" xmlns="http://www.w3.org/2000/svg" version="1.1" viewBox="0 0 400 200" preserveAspectRatio="xMidYMid meet" id="svg2">
  <defs id="defs12"/>
  <metadata id="metadata4">
    <rdf:RDF>
      <cc:Work rdf:about="">
        <dc:format>image/svg+xml</dc:format>
        <dc:type rdf:resource="http://purl.org/dc/dcmitype/StillImage"/>
        <dc:title/>
      </cc:Work>
    </rdf:RDF>
  </metadata>
  <rect width="400" height="200" x="0" y="0" id="rect3120" style="color:#000000;fill:#ffffff;fill-opacity:1;fill-rule:nonzero;stroke:none;stroke-width:1.99999988;marker:none;visibility:visible;display:inline;overflow:visible;enable-background:accumulate"/>
  <g id="layer1"/>
  <g id="layer2"/>
  <path d="m 113.44081,59.351717 c -8.51327,-4.516237 -8.49888,-18.549278 0.0234,-22.845189 3.69968,-1.864934 10.43385,-1.57092 13.96742,0.609795 10.44834,6.448135 6.43592,22.3326 -5.91628,23.421479 -3.21485,0.283396 -6.10471,-0.141096 -8.07456,-1.186085 z M 5,5 l 0,95 0,95 195,0 195,0 0,-95 0,-95 -195,0 z m 39.224138,13.722222 59.396552,0 59.39655,0 0,35.361111 0,35.361111 -9.35075,0 -9.35076,0 -4.51778,-5.013888 c -2.48934,-2.757639 -7.10645,-7.972242 -10.26131,-11.578125 -4.12624,-4.716117 -6.9263,-6.874591 -9.94612,-7.71875 -2.65576,-0.742404 -12.18575,-1.040219 -25.915953,-0.824653 l -21.678339,0.329861 -3.537176,3.859375 c -1.931465,2.123028 -4.762931,6.160528 -6.30388,8.972222 -1.540948,2.811694 -3.053879,5.350347 -3.362069,5.640625 -1.876953,1.767866 -4.626038,8.563659 -4.30765,10.654514 0.50477,3.314677 5.814866,6.152992 8.510237,4.552083 1.082429,-0.642907 4.887988,-5.749157 8.475215,-11.347222 l 6.514009,-10.192708 7.284486,0 c 7.029257,0 7.272155,0.08323 6.549023,2.375 C 91.028314,81.656819 84.39387,95.515947 81.837287,100 c -1.28308,2.25043 -3.390783,18.43237 -4.307654,33.25 l -0.245151,4.22222 -20.172413,0.59375 c -11.094828,0.32433 -20.213375,0.68058 -20.277478,0.79167 -0.0641,0.1111 -1.430763,1.32471 -3.011853,2.70486 -2.799259,2.44349 -5.68777,9.42059 -4.412716,10.62153 1.051229,0.99014 55.938794,0.68263 58.766161,-0.32986 4.220005,-1.51119 5.16674,-5.03022 5.953668,-21.50695 0.408987,-8.56319 1.072699,-15.54712 1.470909,-15.53646 0.65307,0.0174 4.03186,6.34938 23.77963,44.69618 7.05549,13.70057 9.28578,15.43117 19.82219,15.4375 7.44885,0.004 7.62054,-0.0636 5.91865,-2.90277 -2.22308,-3.70857 -31.30977,-60.57346 -31.93965,-62.44271 -0.37338,-1.10799 1.08845,-5.4857 3.39708,-10.258682 5.74048,-11.868044 6.3805,-13.068992 7.10938,-12.963542 0.35813,0.05182 3.71725,3.495567 7.45958,7.652778 l 6.82921,7.553816 12.50269,0.29688 12.53772,0.29687 0,40.04514 0,40.01215 -5.21821,5.34375 -5.21821,5.31077 -11.03179,0 c -6.07198,0 -11.03179,-0.42442 -11.03179,-0.9566 0,-0.53217 0.37824,-1.14669 0.84052,-1.35243 0.46229,-0.20574 3.35022,-2.86882 6.40894,-5.90451 l 5.56842,-5.50868 -8.75538,0 -8.75539,0 -7.56466,6.86111 -7.52962,6.86111 -38.313583,0 c -21.061647,0 -38.278556,-0.29063 -38.278556,-0.62674 0,-0.33611 2.269396,-2.73125 5.043104,-5.34375 l 5.043103,-4.75 0,-13.12847 0,-13.09549 -10.646551,0 c -5.855604,0 -10.646553,-0.4277 -10.646553,-0.95659 0,-0.52889 1.091698,-3.63342 2.416487,-6.8941 2.619579,-6.44753 8.04634,-11.77148 13.028018,-12.79861 1.683735,-0.34716 3.677263,-0.83199 4.447737,-1.05556 1.098287,-0.31868 1.400862,-12.82836 1.400862,-57.956594 z m 213.526402,21.111111 23.49946,0.03299 23.53448,0.03299 32.71013,30.314236 32.74515,30.314231 -12.01239,10.91841 c -6.59343,6.00004 -21.16879,19.41879 -32.39494,29.81944 l -20.41755,18.90105 -23.56951,0 -23.56951,0 22.69397,-21.07813 22.69397,-21.11111 -37.82328,0 -37.82328,-0.0329 0,-17.94445 0,-17.944445 37.75323,0 37.75323,0 C 287.9516,67.9133 271.83431,53.141692 257.75054,39.833333 z" id="path3169" style="fill:#289463;fill-opacity:1"/>
</svg>